<?xml version="1.0" encoding="iso-8859-1"?>
<!-- Generator: Adobe Illustrator 19.0.0, SVG Export Plug-In . SVG Version: 6.00 Build 0)  -->
<svg version="1.1" id="Capa_1" xmlns="http://www.w3.org/2000/svg" xmlns:xlink="http://www.w3.org/1999/xlink" x="0px" y="0px"
	 viewBox="0 0 512 512" style="enable-background:new 0 0 512 512;" xml:space="preserve">
<path style="fill:#302C49;" d="M452.729,72.63H56.799c-13.146,0-23.803,10.657-23.803,23.803v308.363h443.537V96.433
	C476.532,83.287,465.875,72.63,452.729,72.63z"/>
<path style="fill:#525263;" d="M474.452,439.37H37.548C16.811,439.37,0,422.56,0,401.823v-17.307h512v17.307
	C512,422.56,495.189,439.37,474.452,439.37z"/>
<rect x="62.245" y="101.888" style="fill:#4C5E66;" width="385.024" height="253.377"/>
<polygon style="fill:#6C8188;" points="447.272,101.884 447.272,355.261 278.458,355.261 212.514,101.884 "/>
<path style="fill:#F2F2F2;" d="M291.53,411.944H220.47c-11.105,0-20.108-9.003-20.108-20.108v-7.32h111.276v7.32
	C311.638,402.941,302.635,411.944,291.53,411.944z"/>
<g>
</g>
<g>
</g>
<g>
</g>
<g>
</g>
<g>
</g>
<g>
</g>
<g>
</g>
<g>
</g>
<g>
</g>
<g>
</g>
<g>
</g>
<g>
</g>
<g>
</g>
<g>
</g>
<g>
</g>
</svg>
