<svg aria-hidden="true" style="position: absolute; width: 0; height: 0; overflow: hidden;" version="1.1" xmlns="http://www.w3.org/2000/svg" xmlns:xlink="http://www.w3.org/1999/xlink">
<defs>
<symbol id="icon-gamepad" viewBox="0 0 32 32">
<path d="M31.524 18.356l-0.633-1.772c-0.087-0.242-0.354-0.369-0.596-0.282s-0.369 0.353-0.282 0.596l0.633 1.772c0.793 2.219 0.454 4.693-0.907 6.617-0.413 0.584-1.059 0.92-1.774 0.922s-1.364-0.329-1.78-0.91l-3.343-4.659c-0.501-0.698-1.313-1.115-2.172-1.115h-9.337c-0.859 0-1.671 0.417-2.172 1.115l-3.343 4.659c-0.415 0.579-1.061 0.91-1.772 0.91-0.003 0-0.005 0-0.008 0-0.715-0.003-1.361-0.339-1.774-0.922-0.080-0.114-0.158-0.231-0.232-0.349-0.136-0.218-0.424-0.285-0.642-0.149s-0.285 0.424-0.149 0.642c0.083 0.133 0.171 0.265 0.262 0.394 0.589 0.833 1.512 1.313 2.532 1.316h0.011c1.016 0 1.937-0.473 2.53-1.299l3.343-4.659c0.326-0.454 0.855-0.726 1.414-0.726h9.337c0.559 0 1.088 0.271 1.414 0.726l3.343 4.659c0.593 0.826 1.514 1.299 2.53 1.299h0.012c1.020-0.004 1.943-0.483 2.532-1.316 1.536-2.172 1.918-4.964 1.023-7.469z"></path>
<path d="M1.212 23.093c-0.417-1.462-0.367-2.991 0.144-4.423l3.366-9.423c0.739-2.067 2.71-3.457 4.905-3.457h12.747c2.195 0 4.167 1.389 4.905 3.457l2.022 5.66c0.087 0.243 0.353 0.369 0.596 0.282s0.369-0.353 0.282-0.596l-2.022-5.66c-0.871-2.438-3.195-4.075-5.783-4.075h-12.748c-2.588 0-4.913 1.638-5.783 4.075l-3.366 9.423c-0.577 1.616-0.633 3.342-0.163 4.992 0.161 0.587 1.071 0.322 0.897-0.256z"></path>
<path d="M8.234 13.474h1.295c0.466 0 0.845-0.379 0.845-0.845v-0.861h0.861c0.466 0 0.845-0.379 0.845-0.845v-1.295c0-0.466-0.379-0.845-0.845-0.845h-0.861v-0.861c0-0.466-0.379-0.845-0.845-0.845h-1.295c-0.466 0-0.845 0.379-0.845 0.845v0.861h-0.861c-0.466 0-0.845 0.379-0.845 0.845v1.295c0 0.466 0.379 0.845 0.845 0.845h0.861v0.861c0 0.466 0.379 0.845 0.845 0.845zM6.616 10.836v-1.119h1.113c0.327 0 0.592-0.266 0.592-0.592v-1.113h1.119v1.113c0 0.327 0.266 0.592 0.592 0.592h1.113v1.119h-1.113c-0.327 0-0.592 0.266-0.592 0.592v1.113h-1.119v-1.113c0-0.327-0.266-0.592-0.592-0.592z"></path>
<path d="M23.096 7.815c-0.423 0-0.766 0.343-0.766 0.766s0.343 0.766 0.766 0.766 0.766-0.343 0.766-0.766-0.343-0.766-0.766-0.766z"></path>
<path d="M23.096 12.752c0.423 0 0.766-0.343 0.766-0.766s-0.343-0.766-0.766-0.766-0.766 0.343-0.766 0.766 0.343 0.766 0.766 0.766z"></path>
<path d="M25.564 10.283c0 0.423-0.343 0.766-0.766 0.766s-0.766-0.343-0.766-0.766c0-0.423 0.343-0.766 0.766-0.766s0.766 0.343 0.766 0.766z"></path>
<path d="M22.159 10.283c0-0.423-0.343-0.766-0.766-0.766s-0.766 0.343-0.766 0.766 0.343 0.766 0.766 0.766 0.766-0.343 0.766-0.766z"></path>
<path d="M19.788 18.585c1.523 0 2.761-1.239 2.761-2.761s-1.239-2.761-2.761-2.761-2.761 1.239-2.761 2.761 1.239 2.761 2.761 2.761zM19.788 13.995c1.008 0 1.829 0.82 1.829 1.829s-0.82 1.829-1.829 1.829-1.829-0.82-1.829-1.829 0.82-1.829 1.829-1.829z"></path>
<path d="M12.766 17.652c-0.274 0-0.538-0.059-0.784-0.176-0.232-0.11-0.511-0.012-0.621 0.221s-0.012 0.511 0.221 0.621c0.371 0.176 0.77 0.266 1.184 0.266 1.523 0 2.761-1.239 2.761-2.761s-1.239-2.761-2.761-2.761-2.761 1.239-2.761 2.761c0 0.136 0.010 0.273 0.030 0.407 0.038 0.255 0.275 0.43 0.53 0.393s0.431-0.275 0.393-0.529c-0.013-0.089-0.020-0.18-0.020-0.271 0-1.008 0.82-1.829 1.829-1.829s1.829 0.82 1.829 1.829-0.82 1.829-1.829 1.829z"></path>
<path d="M16.012 11.551c-1.011 0-1.834-0.822-1.834-1.833s0.822-1.833 1.834-1.833 1.834 0.823 1.834 1.833-0.823 1.834-1.834 1.834zM16.012 8.822c-0.494 0-0.896 0.402-0.896 0.896s0.402 0.896 0.896 0.896 0.896-0.402 0.896-0.896-0.402-0.896-0.896-0.896z"></path>
</symbol>
<symbol id="icon-car" viewBox="0 0 32 32">
<path d="M30.776 12.82l-0.697-0.738-2.448-6.598c-0.417-1.115-1.484-1.853-2.674-1.86h-17.484c-1.19 0-2.256 0.745-2.674 1.86l-2.414 6.516-1.005 0.93c-0.875 0.745-1.381 1.839-1.381 2.988v9.614c0.007 1.573 1.285 2.844 2.858 2.844h1.805c1.573 0 2.851-1.272 2.858-2.844v-1.395h16.957v1.395c0.007 1.573 1.285 2.844 2.858 2.844h1.805c1.573 0 2.851-1.272 2.858-2.844v-9.867c-0.007-1.073-0.444-2.099-1.224-2.844zM6.085 5.949c0.219-0.581 0.773-0.957 1.388-0.957h17.491c0.615 0 1.169 0.383 1.388 0.957l2.133 5.744h-1.593c-0.376-2.564-2.762-4.335-5.326-3.952-2.044 0.301-3.651 1.908-3.952 3.952h-13.662l2.133-5.744zM25.497 11.692h-6.503c0.376-1.798 2.14-2.947 3.938-2.571 1.285 0.274 2.291 1.279 2.564 2.571zM6.154 25.532c-0.007 0.82-0.67 1.477-1.491 1.477h-1.805c-0.821 0-1.484-0.656-1.491-1.477v-1.791c0.41 0.267 0.95 0.397 1.491 0.397h3.296v1.395zM30.632 25.532c-0.007 0.82-0.67 1.477-1.491 1.477h-1.805c-0.82 0-1.484-0.663-1.491-1.477v-1.395h3.296c0.54 0 1.080-0.13 1.491-0.397v1.791zM29.142 22.769h-26.284c-0.814 0.007-1.484-0.643-1.491-1.463v-5.388c0-0.752 0.335-1.47 0.909-1.956 0.007-0.007 0.021-0.021 0.027-0.027l0.93-0.875h25.894l0.656 0.704c0.007 0.014 0.027 0.021 0.034 0.034 0.513 0.485 0.807 1.162 0.807 1.867v5.641h0.007c-0.007 0.814-0.677 1.47-1.491 1.463z"></path>
<path d="M9.026 15.795h-5.128c-0.376 0-0.684 0.308-0.684 0.684v3.556c0 0.376 0.308 0.684 0.684 0.684h5.128c0.376 0 0.684-0.308 0.684-0.684v-3.556c0-0.376-0.308-0.684-0.684-0.684zM8.342 19.35h-3.761v-2.188h3.761v2.188z"></path>
<path d="M28.103 15.795h-5.128c-0.376 0-0.684 0.308-0.684 0.684v3.556c0 0.376 0.308 0.684 0.684 0.684h5.128c0.376 0 0.684-0.308 0.684-0.684v-3.556c0-0.376-0.308-0.684-0.684-0.684zM27.419 19.35h-3.761v-2.188h3.761v2.188z"></path>
<path d="M19.303 18.667h-6.605c-0.376 0-0.684 0.308-0.684 0.684s0.308 0.684 0.684 0.684h6.605c0.376 0 0.684-0.308 0.684-0.684s-0.308-0.684-0.684-0.684z"></path>
<path d="M19.303 16.547h-6.605c-0.376 0-0.684 0.308-0.684 0.684s0.308 0.684 0.684 0.684h6.605c0.376 0 0.684-0.308 0.684-0.684s-0.308-0.684-0.684-0.684z"></path>
</symbol>
<symbol id="icon-speaker" viewBox="0 0 32 32">
<path d="M5.884 7.802c-0.049-0.342-0.366-0.579-0.708-0.529-1.51 0.218-2.472 0.173-2.481 0.172-0.201-0.011-0.395 0.076-0.521 0.233s-0.169 0.365-0.115 0.559l1.020 3.671c-0.441-0.086-0.906-0.072-1.328 0.045-0.573 0.159-1.060 0.506-1.373 0.977-0.332 0.499-0.431 1.076-0.279 1.623s0.535 0.99 1.076 1.247c0.311 0.147 0.653 0.221 1.002 0.221 0.225 0 0.453-0.031 0.678-0.093 0.559-0.155 1.092-0.507 1.461-0.964 0.43-0.532 0.588-1.153 0.435-1.704-0.034-0.122-0.141-0.509-0.164-0.59l-1.107-3.981c0.464-0.019 1.102-0.067 1.872-0.178 0.342-0.049 0.579-0.366 0.529-0.708zM3.549 13.593c0.043 0.155-0.033 0.373-0.203 0.584-0.206 0.255-0.514 0.459-0.823 0.545-0.283 0.079-0.571 0.060-0.811-0.054-0.209-0.099-0.353-0.259-0.407-0.452s-0.013-0.404 0.115-0.597c0.147-0.221 0.384-0.386 0.667-0.464 0.132-0.037 0.275-0.055 0.42-0.055 0.194 0 0.39 0.033 0.567 0.097 0.255 0.093 0.432 0.24 0.475 0.395z"></path>
<path d="M31.492 16.613c-1.328-0.324-2.113-0.683-2.12-0.687-0.182-0.085-0.395-0.077-0.57 0.021s-0.293 0.275-0.315 0.475l-0.371 3.313c-0.327-0.196-0.698-0.325-1.067-0.367-0.547-0.061-1.086 0.068-1.518 0.365-0.46 0.316-0.746 0.78-0.805 1.307s0.117 1.043 0.496 1.453c0.356 0.385 0.853 0.631 1.4 0.692 0.091 0.010 0.183 0.015 0.276 0.015 0.45 0 0.914-0.118 1.306-0.337 0.556-0.31 0.909-0.793 0.968-1.325 0.012-0.112 0.053-0.472 0.061-0.548l0.406-3.622c0.39 0.136 0.915 0.3 1.557 0.457 0.336 0.082 0.674-0.124 0.755-0.459s-0.124-0.674-0.459-0.755zM27.929 21.401c-0.014 0.124-0.139 0.263-0.335 0.372-0.247 0.138-0.559 0.202-0.834 0.171-0.245-0.027-0.471-0.136-0.621-0.298-0.075-0.081-0.196-0.248-0.172-0.465s0.18-0.354 0.271-0.416c0.152-0.104 0.347-0.16 0.549-0.16 0.041 0 0.081 0.002 0.122 0.007 0.275 0.031 0.565 0.162 0.776 0.352 0.167 0.15 0.258 0.313 0.244 0.437z"></path>
<path d="M25.579 30.75h-1.251c0.088-0.229 0.134-0.475 0.13-0.729l-0.305-23.878c-0.014-1.064-0.89-1.929-1.954-1.929h-13.641c-1.064 0-1.94 0.865-1.954 1.929l-0.305 23.878c-0.003 0.253 0.042 0.5 0.13 0.729h-1.251c-0.345 0-0.625 0.28-0.625 0.625s0.28 0.625 0.625 0.625h20.398c0.345 0 0.625-0.28 0.625-0.625s-0.28-0.625-0.625-0.625zM23.006 30.541c-0.133 0.135-0.311 0.209-0.501 0.209h-14.25c-0.19 0-0.368-0.074-0.501-0.209s-0.205-0.314-0.203-0.503l0.305-23.878c0.005-0.383 0.321-0.695 0.704-0.695h13.641c0.383 0 0.699 0.312 0.704 0.695l0.305 23.878c0.002 0.19-0.070 0.368-0.203 0.503z"></path>
<path d="M15.38 17.347c-0.944 0-1.85 0.21-2.692 0.624-0.31 0.152-0.437 0.527-0.285 0.837s0.527 0.438 0.837 0.285c0.669-0.329 1.389-0.495 2.14-0.495 2.679 0 4.858 2.179 4.858 4.858s-2.179 4.858-4.858 4.858c-2.679 0-4.858-2.179-4.858-4.858 0-0.425 0.055-0.847 0.163-1.254 0.089-0.334-0.11-0.676-0.443-0.765s-0.676 0.11-0.765 0.443c-0.136 0.512-0.205 1.042-0.205 1.575 0 3.368 2.74 6.108 6.108 6.108s6.108-2.74 6.108-6.108-2.74-6.108-6.108-6.108z"></path>
<path d="M15.38 20.495c-1.632 0-2.96 1.328-2.96 2.96s1.328 2.96 2.96 2.96c1.632 0 2.96-1.328 2.96-2.96s-1.328-2.96-2.96-2.96zM15.38 25.165c-0.943 0-1.71-0.767-1.71-1.71s0.767-1.71 1.71-1.71 1.71 0.767 1.71 1.71c0 0.943-0.767 1.71-1.71 1.71z"></path>
<path d="M15.38 6.667c-2.613 0-4.739 2.126-4.739 4.739s2.126 4.739 4.739 4.739c2.613 0 4.739-2.126 4.739-4.739s-2.126-4.739-4.739-4.739zM15.38 14.895c-1.924 0-3.489-1.565-3.489-3.489s1.565-3.489 3.489-3.489c1.924 0 3.489 1.565 3.489 3.489s-1.565 3.489-3.489 3.489z"></path>
<path d="M15.38 9.324c-1.148 0-2.081 0.934-2.081 2.081s0.934 2.081 2.081 2.081 2.081-0.934 2.081-2.081-0.934-2.081-2.081-2.081zM15.38 12.237c-0.458 0-0.831-0.373-0.831-0.831s0.373-0.831 0.831-0.831c0.458 0 0.831 0.373 0.831 0.831s-0.373 0.831-0.831 0.831z"></path>
<path d="M11.724 19.893c-0.008-0.039-0.020-0.079-0.036-0.117s-0.035-0.074-0.057-0.108c-0.023-0.034-0.049-0.066-0.078-0.095s-0.061-0.055-0.095-0.078c-0.034-0.023-0.070-0.042-0.108-0.058s-0.077-0.027-0.117-0.036c-0.081-0.016-0.164-0.016-0.244 0-0.039 0.008-0.079 0.020-0.117 0.036s-0.074 0.035-0.107 0.058c-0.034 0.023-0.066 0.049-0.095 0.078s-0.055 0.061-0.078 0.095c-0.023 0.034-0.042 0.070-0.057 0.108s-0.027 0.078-0.036 0.117c-0.008 0.041-0.012 0.082-0.012 0.122s0.004 0.082 0.012 0.122 0.020 0.079 0.036 0.117c0.016 0.038 0.035 0.074 0.057 0.108s0.049 0.066 0.078 0.095 0.061 0.055 0.095 0.078c0.034 0.023 0.070 0.042 0.107 0.058s0.078 0.027 0.117 0.036c0.041 0.008 0.082 0.012 0.123 0.012s0.082-0.004 0.122-0.012 0.079-0.020 0.117-0.036c0.038-0.016 0.074-0.035 0.108-0.058s0.066-0.049 0.095-0.078 0.055-0.061 0.078-0.095c0.023-0.034 0.042-0.070 0.057-0.108s0.027-0.077 0.036-0.117 0.012-0.081 0.012-0.122-0.004-0.082-0.012-0.122z"></path>
<path d="M26.387 5.787c-0.16-1.684-1.078-2.572-1.82-3.021-0.777-0.47-1.504-0.555-1.585-0.563-0.343-0.035-0.652 0.215-0.687 0.558s0.213 0.65 0.557 0.685c0.005 0.001 0.552 0.066 1.105 0.412 0.699 0.438 1.098 1.127 1.186 2.047 0.031 0.323 0.303 0.566 0.621 0.566 0.020 0 0.040-0.001 0.060-0.003 0.344-0.033 0.596-0.338 0.563-0.681z"></path>
<path d="M28.783 4.966c-0.222-2.334-1.49-3.562-2.515-4.182-1.096-0.663-2.145-0.776-2.189-0.781-0.343-0.035-0.65 0.215-0.685 0.559s0.215 0.65 0.559 0.685c0.008 0.001 0.824 0.096 1.669 0.607 1.133 0.685 1.778 1.772 1.917 3.231 0.031 0.324 0.303 0.566 0.621 0.566 0.020 0 0.040-0.001 0.060-0.003 0.344-0.033 0.596-0.338 0.563-0.681z"></path>
</symbol>
<symbol id="icon-monitor" viewBox="0 0 32 32">
<path d="M29.75 3h-27.5c-0.966 0.001-1.749 0.784-1.75 1.75v18.5c0.001 0.966 0.784 1.749 1.75 1.75h10.14l-0.3 1.5h-2.090c-0.276 0-0.5 0.224-0.5 0.5v0 1.5c0 0.276 0.224 0.5 0.5 0.5v0h12c0.276 0 0.5-0.224 0.5-0.5v0-1.5c0-0.276-0.224-0.5-0.5-0.5v0h-2.090l-0.3-1.5h10.14c0.966-0.001 1.749-0.784 1.75-1.75v-18.5c-0.001-0.966-0.784-1.749-1.75-1.75h-0zM21.5 27.5v0.5h-11v-0.5zM13.11 26.5l0.3-1.5h5.18l0.3 1.5zM30.5 23.25c-0 0.414-0.336 0.75-0.75 0.75h-27.5c-0.414-0-0.75-0.336-0.75-0.75v-1.25h29zM30.5 21h-29v-16.25c0-0.414 0.336-0.75 0.75-0.75h27.5c0.414 0 0.75 0.336 0.75 0.75v0z"></path>
<path d="M16.5 22.5h-1c-0.276 0-0.5 0.224-0.5 0.5s0.224 0.5 0.5 0.5v0h1c0.276 0 0.5-0.224 0.5-0.5s-0.224-0.5-0.5-0.5v0z"></path>
</symbol>
<symbol id="icon-video-game-console-with-gamepad" viewBox="0 0 32 32">
<path d="M5.246 31.374v-21.383l1.992 0.161 12.406 2.551v7.676l-0.065 0.044c-0.051 0.034-0.101 0.069-0.146 0.11l-0.043 0.039h-0.986l-0.044-0.047c-0.106-0.115-0.242-0.205-0.393-0.263-0.834-0.316-1.717-0.304-2.544 0.034-0.125 0.051-0.238 0.115-0.334 0.191-0.082 0.064-0.153 0.137-0.211 0.218l-0.027 0.029c-0.085 0.070-0.158 0.149-0.218 0.235-0.13 0.189-0.255 0.38-0.38 0.571l-0.149 0.227c-0.305 0.461-0.473 0.949-0.585 1.323-0.238 0.79-0.452 1.654-0.654 2.641-0.165 0.804-0.347 1.757-0.453 2.729-0.055 0.501-0.080 0.985-0.074 1.44 0.005 0.341 0.041 0.792 0.286 1.254l0.116 0.218-7.493 0.003zM5.543 10.314v20.763l6.715-0.003c-0.182-0.438-0.213-0.849-0.218-1.171-0.006-0.466 0.019-0.964 0.075-1.477 0.107-0.984 0.291-1.945 0.458-2.756 0.205-0.996 0.42-1.868 0.661-2.666 0.118-0.394 0.296-0.909 0.621-1.402l0.149-0.227c0.127-0.192 0.253-0.385 0.384-0.576 0.071-0.104 0.158-0.2 0.26-0.284 0.073-0.099 0.159-0.188 0.258-0.265 0.118-0.091 0.254-0.169 0.405-0.23 0.895-0.366 1.857-0.378 2.761-0.037 0.172 0.065 0.329 0.166 0.459 0.291h0.746c0.023-0.018 0.045-0.035 0.069-0.052v-7.278l-12.15-2.499-1.653-0.133zM4.922 31.374l-4.678-0.007 2.345-2.085v-19.279h2.333l-0 21.37zM1.026 31.071l3.599 0.006v-20.776h-1.738v19.115l-1.861 1.655zM19.644 12.419l-12.38-2.682-2.018-0.175v-9.562l2.303 0.007 12.095 4.032v8.379zM5.543 9.29l1.765 0.154 12.038 2.607v-7.797l-11.87-3.956h-1.934v8.992zM4.922 9.575l-2.333-0.004v-9.571h2.333v9.575zM2.887 9.274l1.738 0.002v-8.98h-1.738v8.977zM29.699 32c-0.701 0-1.33-0.309-1.532-0.608-0.3-0.443-0.548-1.112-0.751-1.707l-0.024-0.071c-0.154-0.451-0.307-0.901-0.458-1.354-0.036-0.107-0.128-0.154-0.235-0.202-0.729 0.535-1.686 0.512-2.39-0.038-0.020-0.016-0.054-0.028-0.078-0.028l-1.24 0.004-0.575-0.002-0.664 0.002v-0.004l-1.15-0.001c-0.023 0-0.057 0.012-0.077 0.028-0.707 0.551-1.67 0.567-2.393 0.040 0.001-0.001 0.001-0.001 0.001-0.002-0.106 0.047-0.198 0.093-0.233 0.202-0.139 0.416-0.28 0.831-0.422 1.246l-0.061 0.179c-0.203 0.596-0.451 1.265-0.75 1.707-0.203 0.299-0.831 0.608-1.532 0.608-0.482 0-0.929-0.149-1.293-0.43-0.626-0.515-0.753-0.966-0.761-1.572-0.005-0.439 0.019-0.906 0.071-1.387 0.105-0.969 0.29-1.929 0.456-2.741 0.203-0.992 0.418-1.861 0.657-2.654 0.1-0.332 0.247-0.762 0.502-1.148l0.166-0.252c0.123-0.188 0.246-0.375 0.373-0.559 0.046-0.068 0.12-0.108 0.18-0.142 0.011-0.006 0.026-0.015 0.030-0.018 0.002-0.065 0.046-0.121 0.084-0.15 0.040-0.032 0.089-0.059 0.149-0.084 0.668-0.273 1.349-0.282 2.020-0.028 0.096 0.035 0.147 0.111 0.139 0.207-0.002 0.029 0.002 0.041 0.004 0.043s0.009 0.007 0.033 0.009l0.049 0.015c0.131 0.068 0.275 0.099 0.455 0.1h1.404c0.030-0.236 0.228-0.416 0.467-0.416h4.235c0.241 0 0.44 0.182 0.467 0.416h1.365c0.18-0.001 0.323-0.032 0.451-0.098l0.051-0.017c0.031-0.002 0.037-0.009 0.037-0.009 0.002-0.002 0.006-0.014 0.004-0.041-0.009-0.095 0.043-0.173 0.14-0.209 0.67-0.254 1.352-0.245 2.019 0.029 0.060 0.024 0.109 0.052 0.15 0.085 0.037 0.029 0.081 0.085 0.085 0.147 0.002 0.006 0.018 0.014 0.029 0.020 0.060 0.033 0.134 0.074 0.18 0.142 0.127 0.186 0.252 0.375 0.376 0.564l0.163 0.247c0.253 0.382 0.395 0.794 0.502 1.147 0.239 0.794 0.453 1.662 0.657 2.655 0.167 0.811 0.351 1.77 0.456 2.741 0.053 0.481 0.077 0.948 0.071 1.387-0.008 0.606-0.135 1.057-0.76 1.57-0.367 0.284-0.815 0.433-1.296 0.433zM26.705 27.876l0.042 0.007c0.14 0.062 0.294 0.13 0.357 0.32 0.15 0.452 0.304 0.901 0.458 1.352l0.024 0.071c0.187 0.551 0.44 1.237 0.729 1.666 0.172 0.254 0.751 0.529 1.384 0.529 0.442 0 0.852-0.136 1.184-0.393 0.571-0.47 0.685-0.866 0.692-1.433 0.005-0.431-0.019-0.891-0.070-1.365-0.105-0.963-0.289-1.918-0.454-2.724-0.202-0.987-0.415-1.851-0.653-2.639-0.102-0.341-0.24-0.738-0.479-1.101l-0.163-0.247c-0.124-0.188-0.247-0.377-0.375-0.562-0.023-0.033-0.076-0.063-0.118-0.087-0.046-0.026-0.115-0.063-0.121-0.167v0c-0.001 0-0.008-0.011-0.016-0.018-0.029-0.022-0.064-0.041-0.107-0.060-0.626-0.256-1.26-0.265-1.889-0.026-0.026 0.009-0.026 0.015-0.024 0.024 0.007 0.071-0.008 0.13-0.043 0.172s-0.088 0.067-0.155 0.073c-0.139 0.077-0.314 0.115-0.52 0.116h-1.356v1.971c0 0.029-0.002 0.057-0.006 0.085l0.001 0.028c0 0.242-0.178 0.443-0.413 0.472-0.050 0.022-0.126 0.037-0.204 0.037h-3.978c-0.092 0-0.18-0.019-0.263-0.058-0.129-0.040-0.242-0.148-0.291-0.286-0.041-0.078-0.066-0.177-0.066-0.277l0.004-1.971h-1.366c-0.207-0.001-0.381-0.039-0.533-0.118-0.055-0.004-0.107-0.029-0.143-0.071-0.035-0.043-0.051-0.101-0.043-0.172 0.002-0.009 0.002-0.015-0.023-0.024-0.631-0.239-1.264-0.23-1.89 0.026-0.045 0.018-0.080 0.038-0.107 0.059-0.008 0.006-0.016 0.018-0.017 0.021-0.006 0.099-0.075 0.138-0.12 0.163-0.043 0.024-0.096 0.053-0.118 0.086-0.127 0.184-0.249 0.37-0.371 0.557l-0.167 0.253c-0.242 0.365-0.383 0.78-0.48 1.1-0.237 0.788-0.451 1.652-0.653 2.639-0.166 0.808-0.349 1.764-0.453 2.724-0.052 0.475-0.075 0.934-0.070 1.365 0.007 0.566 0.12 0.962 0.694 1.434 0.331 0.255 0.74 0.391 1.182 0.391 0.634 0 1.212-0.275 1.385-0.529 0.29-0.427 0.542-1.114 0.729-1.666l0.061-0.178c0.142-0.415 0.282-0.83 0.421-1.245 0.062-0.19 0.217-0.258 0.354-0.318l0.045-0.008c0.048 0 0.091 0.028 0.108 0.040 0.66 0.482 1.534 0.465 2.178-0.036 0.051-0.040 0.122-0.065 0.187-0.065l1.328 0.004 0.486-0.001 0.499 0.001 0.076-0.002 1.24-0.001c0.064 0 0.135 0.025 0.187 0.065 0.643 0.502 1.518 0.517 2.177 0.037 0.016-0.013 0.060-0.040 0.107-0.040zM20.32 20.972c-0.161 0-0.292 0.131-0.292 0.293v2.2c0 0.045 0.006 0.079 0.018 0.11 0.040 0.074 0.113 0.144 0.2 0.185 0.017 0.004 0.045 0.008 0.075 0.008h4.235c0.012 0 0.024-0.001 0.036-0.002 0.129-0.053 0.235-0.188 0.257-0.347l-0.001-2.144c0-0.172-0.131-0.304-0.292-0.304l-4.235 0.001zM25.49 28.125c-0.649 0-1.176-0.527-1.176-1.176s0.527-1.176 1.176-1.176 1.176 0.527 1.176 1.176c0 0.648-0.527 1.176-1.176 1.176zM25.49 25.951c-0.55 0-0.997 0.448-0.997 0.997s0.448 0.997 0.997 0.997c0.551 0 0.997-0.448 0.997-0.997s-0.447-0.997-0.997-0.997zM19.346 28.125c-0.649 0-1.176-0.527-1.176-1.176s0.528-1.176 1.176-1.176c0.648 0 1.176 0.527 1.176 1.176s-0.528 1.176-1.176 1.176zM19.346 25.951c-0.551 0-0.998 0.448-0.998 0.997s0.448 0.997 0.998 0.997c0.55 0 0.997-0.448 0.997-0.997s-0.448-0.997-0.997-0.997zM21.427 27.406l-0.014-0.105v-0.081c0-0.054 0-0.107 0.003-0.161 0.009-0.147 0.125-0.257 0.271-0.257 0.089 0.001 0.176 0.001 0.262 0.001l0.371-0.002 0.020-0.017c0.002-0.011 0.001-0.025-0.002-0.039l-0.344-0.006-0.51 0.001-0.042-0.032c-0.014-0.014-0.031-0.040-0.029-0.079 0.001-0.013 0.001-0.023 0.001-0.034l-0.002-0.091 0.091-0.019h0.903c0.144 0 0.261 0.108 0.271 0.252 0.004 0.046 0.004 0.114-0.035 0.182-0.030 0.055-0.091 0.124-0.216 0.138-0.025 0.003-0.049 0.003-0.073 0.003l-0.343 0.001c-0.081 0-0.161 0-0.241-0.001-0.009 0-0.015 0-0.017 0.018-0.002 0.014-0.001 0.029-0.001 0.043-0.001 0.060-0.001 0.119 0 0.178l0.001 0.090-0.103 0.016-0.056-0.001-0.163 0.001zM22.3 27.405l-0.066-0.059-0.002-0.050c0.001-0.015 0.001-0.031 0.001-0.046l-0.001-0.036 0.054-0.064 0.316-0.004c0.056 0 0.111 0 0.167 0.001 0.021-0.004 0.025-0.012 0.025-0.028 0.001-0.075 0.001-0.149 0.001-0.223v-0.128c0-0.066 0.018-0.123 0.053-0.172 0.051-0.069 0.125-0.108 0.209-0.109 0.086-0.001 0.171-0.001 0.256-0.001l0.343 0.001 0.012 0.089c0.001 0.038 0.001 0.053 0 0.069l-0.002 0.046-0.071 0.049-0.031 0.001-0.411-0.001c-0.022 0.019-0.023 0.031-0.023 0.044l0.001 0.098c0 0.080 0 0.16-0.001 0.239-0.002 0.102-0.043 0.182-0.121 0.234-0.049 0.032-0.106 0.048-0.172 0.048l-0.537 0.002zM28.176 26.038c-1.203 0-2.181-0.978-2.181-2.18s0.978-2.181 2.181-2.181 2.181 0.978 2.181 2.181-0.978 2.18-2.181 2.18zM27.911 21.872c-0.98 0.13-1.738 0.971-1.738 1.985 0 1.104 0.898 2.002 2.002 2.002 0.992 0 1.819-0.725 1.976-1.673-0.123 0.2-0.343 0.332-0.595 0.332-0.385 0-0.698-0.313-0.698-0.697s0.313-0.698 0.698-0.698c0.239 0 0.45 0.12 0.576 0.303-0.175-0.796-0.825-1.415-1.636-1.546 0.235 0.113 0.397 0.353 0.397 0.629 0 0.385-0.313 0.698-0.698 0.698s-0.698-0.313-0.698-0.698c0.001-0.284 0.171-0.528 0.415-0.637zM29.557 23.302c-0.286 0-0.52 0.233-0.52 0.52s0.233 0.519 0.52 0.519c0.287 0 0.52-0.233 0.52-0.519s-0.233-0.52-0.52-0.52zM27.754 22.784c0.092 0.147 0.255 0.245 0.441 0.245s0.349-0.098 0.44-0.245h-0.881zM28.195 22.026l0.444 0.752c0.048-0.078 0.076-0.17 0.076-0.269 0-0.286-0.233-0.52-0.52-0.52s-0.52 0.233-0.52 0.52c0 0.098 0.027 0.191 0.075 0.269l0.445-0.752zM28.059 22.606h0.271l-0.135-0.229-0.136 0.229zM16.659 26.038c-1.203 0-2.181-0.978-2.181-2.18s0.978-2.181 2.181-2.181 2.181 0.978 2.181 2.181-0.978 2.18-2.181 2.18zM16.659 21.854c-1.104 0-2.003 0.898-2.003 2.003s0.899 2.002 2.003 2.002c1.104 0 2.003-0.898 2.003-2.002s-0.898-2.003-2.003-2.003zM28.195 25.833c-0.385 0-0.698-0.313-0.698-0.698s0.313-0.698 0.698-0.698 0.698 0.313 0.698 0.698-0.313 0.698-0.698 0.698zM28.195 24.615c-0.287 0-0.52 0.233-0.52 0.52s0.233 0.52 0.52 0.52c0.286 0 0.52-0.233 0.52-0.52s-0.233-0.52-0.52-0.52zM16.957 25.779h-0.569c-0.19 0-0.344-0.155-0.344-0.344v-0.751c0-0.114 0.057-0.238 0.145-0.315l0.352-0.386c0.070-0.077 0.195-0.076 0.265-0.001l0.528 0.578h-0.054c0.013 0.041 0.021 0.084 0.021 0.124v0.75c0 0.19-0.154 0.344-0.344 0.344zM16.675 24.103l-0.361 0.393c-0.057 0.051-0.092 0.125-0.092 0.188v0.751c0 0.091 0.074 0.166 0.166 0.166h0.569c0.091 0 0.166-0.074 0.166-0.166v-0.751c0-0.052-0.023-0.111-0.061-0.156l-0.014-0.017-0.373-0.408zM28.447 25.553l-0.236-0.235-0.235 0.235-0.183-0.183 0.235-0.235-0.235-0.235 0.183-0.183 0.235 0.235 0.236-0.235 0.182 0.183-0.235 0.235 0.235 0.235-0.182 0.184zM26.874 24.518c-0.385 0-0.698-0.313-0.698-0.697s0.313-0.698 0.698-0.698 0.698 0.313 0.698 0.698c0 0.385-0.313 0.697-0.698 0.697zM26.874 23.302c-0.286 0-0.52 0.233-0.52 0.52s0.233 0.519 0.52 0.519 0.52-0.233 0.52-0.519-0.233-0.52-0.52-0.52zM18.23 24.451h-0.751c-0.114 0-0.238-0.057-0.315-0.145l-0.386-0.353c-0.038-0.034-0.059-0.082-0.059-0.132 0-0.009 0.001-0.018 0.002-0.026-0.043 0.012-0.091 0.006-0.13-0.015 0.004 0.013 0.005 0.027 0.005 0.040 0 0.050-0.021 0.098-0.059 0.132l-0.392 0.359c-0.070 0.081-0.194 0.138-0.309 0.138h-0.751c-0.189 0-0.343-0.155-0.343-0.344v-0.569c0-0.19 0.154-0.344 0.343-0.344h0.751c0.041 0 0.084 0.007 0.125 0.021v-0.053l0.305 0.279-0.082-0.091c-0.081-0.070-0.138-0.194-0.138-0.308v-0.751c0-0.189 0.154-0.344 0.344-0.344h0.569c0.19 0 0.344 0.155 0.344 0.344v0.751c0 0.041-0.007 0.083-0.021 0.124h0.052l-0.080 0.088 0.102-0.093v0.054c0.042-0.013 0.084-0.021 0.124-0.021h0.751c0.189 0 0.344 0.155 0.344 0.344v0.569c0 0.189-0.154 0.343-0.344 0.343zM17.315 23.439l-0.416 0.381 0.392 0.361c0.051 0.056 0.125 0.092 0.188 0.092h0.751c0.091 0 0.166-0.074 0.166-0.166v-0.569c0-0.092-0.074-0.166-0.166-0.166h-0.751c-0.052 0-0.111 0.023-0.156 0.061l-0.008 0.007zM15.085 23.372c-0.091 0-0.165 0.074-0.165 0.166v0.569c0 0.091 0.074 0.166 0.165 0.166h0.751c0.063 0 0.138-0.035 0.182-0.085l0.4-0.366-0.424-0.389c-0.045-0.037-0.105-0.060-0.157-0.060h-0.751zM16.388 22.125c-0.091 0-0.166 0.074-0.166 0.166v0.751c0 0.063 0.035 0.138 0.084 0.181l0.366 0.4 0.001 0.090-0.001-0.089c0 0 0.001 0 0.002-0.002l0.386-0.424c0.038-0.045 0.061-0.104 0.061-0.156v-0.751c0-0.091-0.075-0.166-0.166-0.166h-0.569zM29.557 24.226c-0.227 0-0.412-0.185-0.412-0.413s0.185-0.413 0.412-0.413c0.228 0 0.413 0.185 0.413 0.413s-0.186 0.413-0.413 0.413zM29.557 23.579c-0.129 0-0.234 0.105-0.234 0.234s0.105 0.234 0.234 0.234c0.13 0 0.235-0.105 0.235-0.234s-0.105-0.234-0.235-0.234zM27.219 24.158h-0.69v-0.69h0.69v0.69zM26.708 23.98h0.333v-0.334h-0.333v0.334zM25.558 23.162c-0.255 0-0.462-0.208-0.462-0.463v-0.768c0-0.255 0.207-0.463 0.462-0.463s0.463 0.207 0.463 0.463v0.768c0 0.255-0.207 0.463-0.463 0.463zM25.558 21.646c-0.157 0-0.284 0.128-0.284 0.285v0.768c0 0.156 0.127 0.285 0.284 0.285s0.285-0.128 0.285-0.285v-0.768c0-0.157-0.128-0.285-0.285-0.285zM19.277 23.162c-0.255 0-0.462-0.208-0.462-0.463v-0.768c0-0.255 0.207-0.463 0.462-0.463s0.463 0.207 0.463 0.463v0.768c0 0.255-0.208 0.463-0.463 0.463zM19.277 21.646c-0.157 0-0.284 0.128-0.284 0.285v0.768c0 0.156 0.127 0.285 0.284 0.285s0.285-0.128 0.285-0.285v-0.768c0-0.157-0.128-0.285-0.285-0.285zM6.55 26.542c0.021 0.005 0.042 0.012 0.063 0.019 0.058 0.021 0.113 0.070 0.112 0.136-0.002 0.191-0.001 0.383-0.001 0.575 0 0.020 0 0.042 0.003 0.063 0.008 0.066 0.040 0.127 0.109 0.177 0.048 0.036 0.1 0.055 0.154 0.066 0.113 0.024 0.198-0.029 0.198-0.124 0-0.29 0-0.581 0-0.871 0-0.006 0-0.012 0-0.020-0.024-0.007-0.045-0.012-0.067-0.019-0.018-0.006-0.021-0.001-0.021 0.013 0.001 0.155 0.001 0.311 0.001 0.466 0 0.109 0 0.218 0 0.326-0.001 0.054-0.031 0.081-0.092 0.074-0.026-0.002-0.055-0.009-0.081-0.019-0.075-0.030-0.109-0.074-0.109-0.137 0-0.207-0.002-0.415 0.001-0.622 0.001-0.104-0.092-0.202-0.203-0.238-0.092-0.030-0.185-0.053-0.278-0.080-0.012-0.003-0.016-0.001-0.016 0.009 0.001 0.043 0.001 0.086 0 0.128 0 0.012 0.005 0.016 0.019 0.020 0.070 0.019 0.139 0.039 0.21 0.059zM6.549 27.904c0.133 0.038 0.265 0.074 0.398 0.111 0.017 0.005 0.034 0.010 0.051 0.017 0.050 0.020 0.087 0.056 0.097 0.097 0.004 0.013 0.004 0.026 0.004 0.039 0.001 0.133 0.001 0.266 0.001 0.399 0 0.004-0.002 0.007 0 0.010 0.003 0.005 0.007 0.012 0.012 0.013 0.024 0.007 0.049 0.014 0.075 0.021 0-0.005 0-0.009 0-0.012 0-0.167 0.002-0.334-0.001-0.502-0.001-0.056-0.030-0.111-0.085-0.161-0.041-0.036-0.089-0.060-0.139-0.074-0.136-0.038-0.274-0.076-0.411-0.114-0.080-0.023-0.139-0.072-0.137-0.153 0.003-0.138 0.001-0.277 0.001-0.415 0-0.004-0.001-0.007 0-0.010 0.001-0.009-0.004-0.015-0.015-0.018-0.020-0.006-0.041-0.010-0.062-0.017-0.014-0.005-0.018-0.001-0.018 0.010 0.001 0.164 0 0.328 0.001 0.493 0 0.043 0.010 0.088 0.040 0.132 0.044 0.070 0.11 0.111 0.188 0.133zM7.159 29.177c-0.053-0.087-0.106-0.175-0.16-0.262-0.158-0.26-0.316-0.52-0.475-0.78-0.008-0.013-0.018-0.027-0.029-0.039-0.032-0.032-0.066-0.032-0.075 0-0.004 0.013-0.004 0.027-0.004 0.042-0.001 0.265-0.001 0.529 0 0.794 0 0.012-0.004 0.015-0.019 0.010-0.024-0.007-0.048-0.014-0.073-0.021 0 0.053 0 0.104 0 0.157 0.024 0.007 0.048 0.014 0.071 0.019 0.016 0.004 0.021 0.009 0.021 0.023-0.001 0.042-0.001 0.083 0 0.125 0 0.005 0.005 0.015 0.007 0.015 0.028 0.008 0.055 0.017 0.084 0.024 0.001-0.007 0.001-0.012 0.001-0.018 0-0.040 0.001-0.079-0.001-0.119 0-0.015 0.004-0.019 0.022-0.013 0.188 0.053 0.375 0.105 0.562 0.156 0.019 0.006 0.038 0.008 0.055 0.009 0.028 0.001 0.038-0.013 0.041-0.037 0.003-0.028-0.011-0.057-0.029-0.086zM7.006 29.112c-0.161-0.045-0.322-0.089-0.484-0.135-0.003-0.001-0.006-0.002-0.012-0.004 0-0.232 0-0.464 0-0.696 0.002-0.001 0.004-0.001 0.005-0.001 0.004 0.005 0.008 0.010 0.012 0.015 0.163 0.268 0.327 0.536 0.49 0.804 0.011 0.018 0.009 0.022-0.012 0.016z"></path>
</symbol>
<symbol id="icon-notebook-computer" viewBox="0 0 32 32">
<path d="M29.302 7.071h-26.664v16.646h26.664v-16.646zM29.026 23.441h-26.11v-16.093h26.11v16.093z"></path>
<path d="M31.989 24.694c-0.028-0.080-0.1-0.116-0.168-0.122l-1.641-0.005c0.102-0.207 0.155-0.434 0.155-0.665v-16.235c0-0.848-0.69-1.539-1.538-1.539h-25.612c-0.848 0-1.538 0.69-1.538 1.539v16.235c0 0.238 0.056 0.472 0.165 0.685h-1.715l-0.040 0.041c-0.030 0.031-0.166 0.201 0.141 0.507 0.67 0.67 2.107 0.733 2.168 0.735l0.144 0.004v-0.006c1.803 0.001 20.709 0.006 25.629 0.006 1.164 0 1.166-0.001 1.165-0.001 1.395 0 1.94-0.378 2.338-0.654 0.041-0.029 0.080-0.055 0.118-0.081l0.021-0.017c0.186-0.187 0.249-0.314 0.209-0.426zM1.924 7.666c0-0.696 0.566-1.262 1.261-1.262h25.612c0.696 0 1.262 0.566 1.262 1.262v16.235c0 0.235-0.070 0.461-0.196 0.663l-0.064 0.004-27.678-0.008c-0.126-0.201-0.196-0.426-0.196-0.66v-16.235zM17.768 24.919v0.176h-3.535v-0.176h3.535zM31.592 24.915c-0.036 0.024-0.073 0.050-0.111 0.076-0.368 0.255-0.872 0.605-2.183 0.605-0.167 0.002-26.929-0.005-26.929-0.005l-0.022 0.001c-0.198-0.012-1.408-0.106-1.955-0.653-0.030-0.029-0.052-0.055-0.068-0.076l13.839-0.006v0.308h3.673v-0.31l13.818-0.006c-0.017 0.018-0.037 0.040-0.063 0.067z"></path>
</symbol>
<symbol id="icon-ipad" viewBox="0 0 32 32">
<path d="M26.161 32h-20.322c-0.669 0-1.213-0.544-1.213-1.213v-29.573c0-0.669 0.544-1.213 1.213-1.213h20.322c0.669 0 1.213 0.544 1.213 1.213v29.573c0 0.669-0.544 1.213-1.213 1.213zM5.839 0.303c-0.502 0-0.91 0.408-0.91 0.91v29.573c0 0.502 0.408 0.91 0.91 0.91h20.322c0.502 0 0.91-0.408 0.91-0.91v-29.573c0-0.502-0.408-0.91-0.91-0.91h-20.322zM16 31.216c-0.53 0-0.961-0.431-0.961-0.96s0.431-0.96 0.961-0.96 0.961 0.431 0.961 0.96-0.431 0.96-0.961 0.96zM16 29.599c-0.362 0-0.657 0.295-0.657 0.657s0.295 0.657 0.657 0.657c0.362 0 0.657-0.295 0.657-0.657s-0.295-0.657-0.657-0.657zM26.009 28.739h-20.064v-25.782h20.064v25.782zM6.249 28.436h19.458v-25.175h-19.458v25.175zM16.632 1.997h-1.264c-0.167 0-0.303-0.136-0.303-0.303s0.136-0.303 0.303-0.303h1.264c0.167 0 0.303 0.136 0.303 0.303s-0.136 0.303-0.303 0.303z"></path>
</symbol>
<symbol id="icon-smartphone" viewBox="0 0 32 32">
<path d="M23.1 32h-14.201c-0.627 0-1.137-0.51-1.137-1.137v-29.726c0-0.627 0.51-1.137 1.137-1.137h14.201c0.627 0 1.137 0.51 1.137 1.137v29.726c0 0.627-0.51 1.137-1.137 1.137zM8.899 0.349c-0.435 0-0.789 0.354-0.789 0.789v29.726c0 0.435 0.354 0.789 0.789 0.789h14.201c0.435 0 0.789-0.354 0.789-0.789v-29.726c0-0.435-0.354-0.789-0.789-0.789l-14.201 0zM16 30.777c-0.538 0-0.977-0.438-0.977-0.977s0.438-0.977 0.977-0.977c0.538 0 0.976 0.438 0.976 0.977s-0.438 0.977-0.976 0.977zM16 29.172c-0.347 0-0.629 0.282-0.629 0.629s0.282 0.629 0.629 0.629c0.347 0 0.628-0.282 0.628-0.629 0-0.347-0.281-0.629-0.628-0.629zM22.793 28.028h-13.587v-24.057h13.587v24.057zM9.555 27.68h12.89v-23.36h-12.89v23.36zM17.775 2.511h-3.551c-0.181 0-0.328-0.147-0.328-0.328s0.147-0.328 0.328-0.328h3.55c0.181 0 0.328 0.147 0.328 0.328s-0.147 0.328-0.327 0.328zM14.225 2.030c-0.085 0-0.154 0.069-0.154 0.154s0.069 0.154 0.154 0.154h3.55c0.084 0 0.154-0.069 0.154-0.154s-0.069-0.154-0.154-0.154h-3.55z"></path>
</symbol>
<symbol id="icon-globe" viewBox="0 0 20 20">
<path d="M10 0.4c-5.295 0-9.601 4.307-9.601 9.6s4.306 9.6 9.601 9.6c5.293 0 9.6-4.307 9.6-9.6s-4.307-9.6-9.6-9.6zM18.188 10c0 1.873-0.636 3.6-1.696 4.98-0.3-0.234-0.619-0.867-0.319-1.523 0.303-0.66 0.382-2.188 0.312-2.783-0.066-0.594-0.375-2.025-1.214-2.039-0.838-0.012-1.413-0.289-1.911-1.283-1.033-2.068 1.939-2.465 0.906-3.609-0.289-0.322-1.783 1.322-2.002-0.869-0.014-0.157 0.135-0.392 0.336-0.636 3.244 1.090 5.588 4.157 5.588 7.762zM8.875 1.893c-0.196 0.382-0.713 0.537-1.027 0.824-0.684 0.619-0.978 0.533-1.346 1.127-0.371 0.594-1.567 1.449-1.567 1.879s0.604 0.936 0.906 0.838c0.302-0.1 1.099-0.094 1.567 0.070 0.469 0.166 3.914 0.332 2.816 3.244-0.348 0.926-1.873 0.77-2.279 2.303-0.061 0.225-0.272 1.186-0.285 1.5-0.025 0.486 0.344 2.318-0.125 2.318-0.471 0-1.738-1.639-1.738-1.936s-0.328-1.338-0.328-2.23c0-0.891-1.518-0.877-1.518-2.062 0-1.068 0.823-1.6 0.638-2.113-0.181-0.51-1.627-0.527-2.23-0.59 1.053-2.731 3.53-4.758 6.516-5.172zM7.424 17.77c0.492-0.26 0.542-0.596 0.988-0.613 0.51-0.023 0.925-0.199 1.5-0.326 0.51-0.111 1.423-0.629 2.226-0.695 0.678-0.055 2.015 0.035 2.375 0.689-1.295 0.861-2.848 1.363-4.514 1.363-0.899 0-1.765-0.149-2.575-0.418z"></path>
</symbol>
<symbol id="icon-magnifying-glass" viewBox="0 0 20 20">
<path d="M17.545 15.467l-3.779-3.779c0.57-0.935 0.898-2.035 0.898-3.21 0-3.417-2.961-6.377-6.378-6.377s-6.186 2.769-6.186 6.186c0 3.416 2.961 6.377 6.377 6.377 1.137 0 2.2-0.309 3.115-0.844l3.799 3.801c0.372 0.371 0.975 0.371 1.346 0l0.943-0.943c0.371-0.371 0.236-0.84-0.135-1.211zM4.004 8.287c0-2.366 1.917-4.283 4.282-4.283s4.474 2.107 4.474 4.474c0 2.365-1.918 4.283-4.283 4.283s-4.473-2.109-4.473-4.474z"></path>
</symbol>
<symbol id="icon-facebook-with-circle" viewBox="0 0 20 20">
<path d="M10 0.4c-5.302 0-9.6 4.298-9.6 9.6s4.298 9.6 9.6 9.6 9.6-4.298 9.6-9.6-4.298-9.6-9.6-9.6zM12.274 7.034h-1.443c-0.171 0-0.361 0.225-0.361 0.524v1.042h1.805l-0.273 1.486h-1.532v4.461h-1.703v-4.461h-1.545v-1.486h1.545v-0.874c0-1.254 0.87-2.273 2.064-2.273h1.443v1.581z"></path>
</symbol>
<symbol id="icon-checkmark" viewBox="0 0 32 32">
<path d="M27 4l-15 15-7-7-5 5 12 12 20-20z"></path>
</symbol>
<symbol id="icon-radio-unchecked" viewBox="0 0 32 32">
<path d="M16 0c-8.837 0-16 7.163-16 16s7.163 16 16 16 16-7.163 16-16-7.163-16-16-16zM16 28c-6.627 0-12-5.373-12-12s5.373-12 12-12c6.627 0 12 5.373 12 12s-5.373 12-12 12z"></path>
</symbol>
<symbol id="icon-google" viewBox="0 0 32 32">
<path d="M16.319 13.713v5.487h9.075c-0.369 2.356-2.744 6.9-9.075 6.9-5.463 0-9.919-4.525-9.919-10.1s4.456-10.1 9.919-10.1c3.106 0 5.188 1.325 6.375 2.469l4.344-4.181c-2.788-2.612-6.4-4.188-10.719-4.188-8.844 0-16 7.156-16 16s7.156 16 16 16c9.231 0 15.363-6.494 15.363-15.631 0-1.050-0.113-1.85-0.25-2.65l-15.113-0.006z"></path>
</symbol>
<symbol id="icon-facebook" viewBox="0 0 32 32">
<path d="M19 6h5v-6h-5c-3.86 0-7 3.14-7 7v3h-4v6h4v16h6v-16h5l1-6h-6v-3c0-0.542 0.458-1 1-1z"></path>
</symbol>
<symbol id="icon-instagram" viewBox="0 0 32 32">
<path d="M16 2.881c4.275 0 4.781 0.019 6.462 0.094 1.563 0.069 2.406 0.331 2.969 0.55 0.744 0.288 1.281 0.638 1.837 1.194 0.563 0.563 0.906 1.094 1.2 1.838 0.219 0.563 0.481 1.412 0.55 2.969 0.075 1.688 0.094 2.194 0.094 6.463s-0.019 4.781-0.094 6.463c-0.069 1.563-0.331 2.406-0.55 2.969-0.288 0.744-0.637 1.281-1.194 1.837-0.563 0.563-1.094 0.906-1.837 1.2-0.563 0.219-1.413 0.481-2.969 0.55-1.688 0.075-2.194 0.094-6.463 0.094s-4.781-0.019-6.463-0.094c-1.563-0.069-2.406-0.331-2.969-0.55-0.744-0.288-1.281-0.637-1.838-1.194-0.563-0.563-0.906-1.094-1.2-1.837-0.219-0.563-0.481-1.413-0.55-2.969-0.075-1.688-0.094-2.194-0.094-6.463s0.019-4.781 0.094-6.463c0.069-1.563 0.331-2.406 0.55-2.969 0.288-0.744 0.638-1.281 1.194-1.838 0.563-0.563 1.094-0.906 1.838-1.2 0.563-0.219 1.412-0.481 2.969-0.55 1.681-0.075 2.188-0.094 6.463-0.094zM16 0c-4.344 0-4.887 0.019-6.594 0.094-1.7 0.075-2.869 0.35-3.881 0.744-1.056 0.412-1.95 0.956-2.837 1.85-0.894 0.888-1.438 1.781-1.85 2.831-0.394 1.019-0.669 2.181-0.744 3.881-0.075 1.713-0.094 2.256-0.094 6.6s0.019 4.887 0.094 6.594c0.075 1.7 0.35 2.869 0.744 3.881 0.413 1.056 0.956 1.95 1.85 2.837 0.887 0.887 1.781 1.438 2.831 1.844 1.019 0.394 2.181 0.669 3.881 0.744 1.706 0.075 2.25 0.094 6.594 0.094s4.888-0.019 6.594-0.094c1.7-0.075 2.869-0.35 3.881-0.744 1.050-0.406 1.944-0.956 2.831-1.844s1.438-1.781 1.844-2.831c0.394-1.019 0.669-2.181 0.744-3.881 0.075-1.706 0.094-2.25 0.094-6.594s-0.019-4.887-0.094-6.594c-0.075-1.7-0.35-2.869-0.744-3.881-0.394-1.063-0.938-1.956-1.831-2.844-0.887-0.887-1.781-1.438-2.831-1.844-1.019-0.394-2.181-0.669-3.881-0.744-1.712-0.081-2.256-0.1-6.6-0.1v0z"></path>
<path d="M16 7.781c-4.537 0-8.219 3.681-8.219 8.219s3.681 8.219 8.219 8.219 8.219-3.681 8.219-8.219c0-4.537-3.681-8.219-8.219-8.219zM16 21.331c-2.944 0-5.331-2.387-5.331-5.331s2.387-5.331 5.331-5.331c2.944 0 5.331 2.387 5.331 5.331s-2.387 5.331-5.331 5.331z"></path>
<path d="M26.462 7.456c0 1.060-0.859 1.919-1.919 1.919s-1.919-0.859-1.919-1.919c0-1.060 0.859-1.919 1.919-1.919s1.919 0.859 1.919 1.919z"></path>
</symbol>
<symbol id="icon-spotify" viewBox="0 0 32 32">
<path d="M16 0c-8.8 0-16 7.2-16 16s7.2 16 16 16 16-7.2 16-16-7.119-16-16-16zM23.363 23.119c-0.319 0.481-0.881 0.637-1.363 0.319-3.762-2.319-8.481-2.8-14.081-1.519-0.563 0.163-1.037-0.238-1.2-0.719-0.162-0.563 0.237-1.038 0.719-1.2 6.081-1.363 11.363-0.8 15.519 1.762 0.563 0.238 0.644 0.875 0.406 1.356zM25.281 18.719c-0.4 0.563-1.119 0.8-1.681 0.4-4.319-2.637-10.881-3.438-15.919-1.837-0.638 0.163-1.362-0.163-1.519-0.8-0.162-0.637 0.162-1.363 0.8-1.519 5.838-1.762 13.037-0.881 18 2.163 0.475 0.238 0.719 1.038 0.319 1.594zM25.438 14.238c-5.119-3.037-13.681-3.363-18.563-1.838-0.8 0.238-1.6-0.238-1.838-0.963-0.237-0.8 0.237-1.6 0.963-1.838 5.681-1.681 15.038-1.363 20.962 2.162 0.719 0.4 0.962 1.363 0.563 2.081-0.406 0.556-1.363 0.794-2.087 0.394z"></path>
</symbol>
<symbol id="icon-twitter" viewBox="0 0 32 32">
<path d="M32 7.075c-1.175 0.525-2.444 0.875-3.769 1.031 1.356-0.813 2.394-2.1 2.887-3.631-1.269 0.75-2.675 1.3-4.169 1.594-1.2-1.275-2.906-2.069-4.794-2.069-3.625 0-6.563 2.938-6.563 6.563 0 0.512 0.056 1.012 0.169 1.494-5.456-0.275-10.294-2.888-13.531-6.862-0.563 0.969-0.887 2.1-0.887 3.3 0 2.275 1.156 4.287 2.919 5.463-1.075-0.031-2.087-0.331-2.975-0.819 0 0.025 0 0.056 0 0.081 0 3.181 2.263 5.838 5.269 6.437-0.55 0.15-1.131 0.231-1.731 0.231-0.425 0-0.831-0.044-1.237-0.119 0.838 2.606 3.263 4.506 6.131 4.563-2.25 1.762-5.075 2.813-8.156 2.813-0.531 0-1.050-0.031-1.569-0.094 2.913 1.869 6.362 2.95 10.069 2.95 12.075 0 18.681-10.006 18.681-18.681 0-0.287-0.006-0.569-0.019-0.85 1.281-0.919 2.394-2.075 3.275-3.394z"></path>
</symbol>
<symbol id="icon-appleinc" viewBox="0 0 32 32">
<path d="M24.734 17.003c-0.040-4.053 3.305-5.996 3.454-6.093-1.88-2.751-4.808-3.127-5.851-3.171-2.492-0.252-4.862 1.467-6.127 1.467-1.261 0-3.213-1.43-5.28-1.392-2.716 0.040-5.221 1.579-6.619 4.012-2.822 4.897-0.723 12.151 2.028 16.123 1.344 1.944 2.947 4.127 5.051 4.049 2.026-0.081 2.793-1.311 5.242-1.311s3.138 1.311 5.283 1.271c2.18-0.041 3.562-1.981 4.897-3.931 1.543-2.255 2.179-4.439 2.216-4.551-0.048-0.022-4.252-1.632-4.294-6.473zM20.705 5.11c1.117-1.355 1.871-3.235 1.665-5.11-1.609 0.066-3.559 1.072-4.713 2.423-1.036 1.199-1.942 3.113-1.699 4.951 1.796 0.14 3.629-0.913 4.747-2.264z"></path>
</symbol>
</defs>
</svg>
